<?xml version="1.0" encoding="utf-8"?>
<!-- Generator: Adobe Illustrator 25.0.0, SVG Export Plug-In . SVG Version: 6.00 Build 0)  -->
<svg version="1.1" id="Ebene_1" xmlns="http://www.w3.org/2000/svg" xmlns:xlink="http://www.w3.org/1999/xlink" x="0px" y="0px"
	 viewBox="0 0 870.2 1700.8" style="enable-background:new 0 0 870.2 1700.8;" xml:space="preserve">
<style type="text/css">
	.st0{fill:#020203;}
</style>
<image style="display:none;overflow:visible;" width="1200" height="1600" xlink:href="64de7162-e53a-4b13-ac70-b01cb1410925.jpg"  transform="matrix(1 0 0 1 -456.211 -183.9185)">
</image>
<g>
	<path d="M76.4,666h6.1l2.4,9.1l2.3-9.1h6.1v15h-3.8v-11.5l-2.9,11.5h-3.4l-2.9-11.5v11.5h-3.8V666z"/>
	<path d="M109.7,678.6h-5.3l-0.7,2.5h-4.7l5.6-15h5.1l5.6,15h-4.9L109.7,678.6z M108.7,675.3l-1.7-5.4l-1.6,5.4H108.7z"/>
	<path d="M118.5,666h14.1v3.7h-4.7v11.3h-4.6v-11.3h-4.7V666z"/>
	<path d="M137.8,666H152v3.7h-4.7v11.3h-4.6v-11.3h-4.7V666z"/>
	<path d="M156.8,666h4.9l3.4,10.8l3.3-10.8h4.7l-5.6,15h-5L156.8,666z"/>
	<path d="M178.8,666h12.4v3.2h-7.8v2.4h7.2v3.1h-7.2v3h8v3.4h-12.7V666z"/>
	<path d="M198.2,666h4.3l5.7,8.3V666h4.4v15h-4.4l-5.6-8.3v8.3h-4.4V666z"/>
	<path d="M218.8,666h14.1v3.7h-4.7v11.3h-4.6v-11.3h-4.7V666z"/>
	<path d="M249,666h4.6v9c0,0.9-0.1,1.7-0.4,2.5c-0.3,0.8-0.7,1.5-1.3,2.1c-0.6,0.6-1.2,1-1.9,1.2c-0.9,0.3-2,0.5-3.3,0.5
		c-0.7,0-1.5-0.1-2.4-0.2c-0.9-0.1-1.6-0.3-2.2-0.6c-0.6-0.3-1.1-0.7-1.6-1.3c-0.5-0.6-0.8-1.1-1-1.7c-0.3-1-0.4-1.8-0.4-2.5v-9h4.6
		v9.2c0,0.8,0.2,1.5,0.7,1.9c0.5,0.5,1.1,0.7,1.9,0.7c0.8,0,1.4-0.2,1.9-0.7c0.5-0.5,0.7-1.1,0.7-1.9V666z"/>
	<path d="M261,681.1v-15h7.7c1.4,0,2.5,0.1,3.3,0.4s1.4,0.7,1.8,1.4c0.5,0.7,0.7,1.5,0.7,2.4c0,0.8-0.2,1.6-0.5,2.2
		c-0.4,0.6-0.8,1.1-1.5,1.5c-0.4,0.2-0.9,0.4-1.6,0.6c0.6,0.2,1,0.4,1.2,0.6c0.2,0.1,0.4,0.4,0.7,0.8c0.3,0.4,0.5,0.7,0.7,0.9
		l2.2,4.4h-5.2l-2.5-4.6c-0.3-0.6-0.6-1-0.8-1.2c-0.3-0.2-0.7-0.3-1.1-0.3h-0.4v6.1H261z M265.6,672.1h2c0.2,0,0.6-0.1,1.2-0.2
		c0.3-0.1,0.6-0.2,0.8-0.5c0.2-0.3,0.3-0.5,0.3-0.9c0-0.5-0.2-0.9-0.5-1.1c-0.3-0.3-0.9-0.4-1.7-0.4h-2V672.1z"/>
	<path d="M281.4,666h12.4v3.2h-7.8v2.4h7.2v3.1h-7.2v3h8v3.4h-12.7V666z"/>
	<path d="M300,676.1l4.4-0.3c0.1,0.7,0.3,1.3,0.6,1.6c0.5,0.6,1.2,0.9,2.1,0.9c0.7,0,1.2-0.2,1.5-0.5c0.4-0.3,0.5-0.7,0.5-1.1
		c0-0.4-0.2-0.7-0.5-1c-0.3-0.3-1.1-0.6-2.4-0.9c-2-0.5-3.5-1.1-4.4-1.8c-0.9-0.8-1.3-1.7-1.3-2.9c0-0.8,0.2-1.5,0.7-2.2
		c0.4-0.7,1.1-1.2,2-1.6c0.9-0.4,2.1-0.6,3.7-0.6c1.9,0,3.4,0.4,4.4,1.1c1,0.7,1.6,1.9,1.8,3.4l-4.4,0.3c-0.1-0.7-0.4-1.2-0.7-1.5
		c-0.4-0.3-0.9-0.5-1.5-0.5c-0.5,0-0.9,0.1-1.2,0.3s-0.4,0.5-0.4,0.8c0,0.2,0.1,0.5,0.3,0.6c0.2,0.2,0.7,0.4,1.6,0.6
		c2,0.4,3.5,0.9,4.4,1.3c0.9,0.4,1.5,1,1.9,1.7c0.4,0.7,0.6,1.4,0.6,2.2c0,1-0.3,1.9-0.8,2.7s-1.3,1.4-2.2,1.9
		c-1,0.4-2.2,0.6-3.6,0.6c-2.6,0-4.3-0.5-5.3-1.5S300.1,677.6,300,676.1z"/>
</g>
<rect x="190.7" y="566.7" width="4.7" height="82.6"/>
<rect x="191" y="697.2" width="4.7" height="82.6"/>
<circle cx="193.4" cy="555.5" r="3.7"/>
<circle cx="193.6" cy="788.9" r="3.7"/>
<circle cx="327.1" cy="674.3" r="3.7"/>
<circle cx="63.9" cy="674.3" r="3.7"/>
<polygon points="118.6,742.5 104.5,742.5 104.5,739.3 121.9,739.3 "/>
<polygon points="108.4,753.9 94.3,753.9 94.3,750.6 111.6,750.6 "/>
<polygon points="168.5,697.3 128,737.7 125.7,735.4 163.7,697.4 "/>
<polygon points="124.2,757.6 116.2,766.1 116.2,749.7 124.2,741.2 "/>
<polygon points="113.8,768.6 105.8,777 105.8,760.7 113.8,752.2 "/>
<polygon points="103,779.7 95,788.2 95,771.8 103,763.3 "/>
<polygon points="98.2,764.3 84.1,764.3 84.1,761 101.4,761 "/>
<g>
	<polygon class="st0" points="269.4,591.8 278.2,603.7 284.7,594.9 269.4,563.8 254,594.9 260.5,603.7 	"/>
	<polygon class="st0" points="289.4,604.2 278.2,619.2 269.4,607.3 261.4,618 277.2,649.8 311.7,649.8 311.7,649.3 	"/>
	<polygon class="st0" points="209.5,649.8 268,649.8 238.7,590.7 	"/>
</g>
</svg>
